/* XPM */
static char *magick[] = {
/* columns rows colors chars-per-pixel */
"24 24 3 1",
"  c None",
". c #9998fe",
"X c #ffffff",
/* pixels */
"       ..........       ",
"     ..............     ",
"    ................    ",
"   ..................   ",
"  ....................  ",
" .....X.........X...... ",
" ....XXX.......XXX..... ",
"......XXX.....XXX.......",
".......XXX...XXX........",
"........XXX.XXX.........",
".........XXXXX..........",
"..........XXX...........",
".........XXXXX..........",
"........XXX.XXX.........",
".......XXX...XXX........",
"......XXX.....XXX.......",
" ....XXX.......XXX..... ",
" .....X.........X...... ",
"  ....................  ",
"   ..................   ",
"    ................    ",
"     ..............     ",
"      ............      ",
"        ........        "
};
