/* XPM */
static char *magick[] = {
/* columns rows colors chars-per-pixel */
"19 27 48 1",
"  c #151832",
". c #1b2331",
"X c #262a37",
"o c #2f353a",
"O c #191824",
"+ c #141c43",
"@ c #272a51",
"# c #333749",
"$ c #363a54",
"% c #293251",
"& c #363c63",
"* c #1d284a",
"= c #3e413f",
"- c #3a4148",
"; c #3d4358",
": c #3a4266",
"> c #3e4171",
", c #403d5a",
"< c #484a49",
"1 c #44495b",
"2 c #4e5359",
"3 c #4a506e",
"4 c #596376",
"5 c #646c73",
"6 c #5d6457",
"7 c #5c698d",
"8 c #5c6cba",
"9 c #5b63ac",
"0 c #717d99",
"q c #667289",
"w c #6577b6",
"e c #6971a7",
"r c #595d93",
"t c #6573cc",
"y c #5e5ec9",
"u c #798898",
"i c #7484ab",
"p c #7883e7",
"a c #8e947b",
"s c #818eb4",
"d c #888dcb",
"f c #95a8db",
"g c #bbd7fd",
"h c #b8ccdf",
"j c None",
"k c #c3dafd",
"l c #d3e8fd",
"z c #e6fcfd",
/* pixels */
"jjjjjjj.#.X.jjjjjjj",
"jjjjjj.10i1.2jjjjjj",
"jOX142u474$XOoXoO=j",
"<O.o3;4%&::*.OX OOa",
"jX1iqqqep93i5$#6--j",
"j.17fllrr8wruq4-o=j",
"jo,ddlf3ty8:05%#2<j",
"jo1e4k$99t3@;q+$-<j",
"jX1eqk%w9t>&1q $<<j",
"jX1e7k%t8t3:1q #<<j",
"jX207k%e8t3:3q+$<<j",
"jX1eqk%i8t3:1q $<<j",
"jX205g%e8t3:1q $<<j",
"jX107k%iwt3:3q $<<j",
"jX107k%w8t3&3q+$<<j",
"jX107k%w8t>:1q $<<j",
"j.-i4g@i8t3:1q $<<j",
"jX1i7k%w8t3:25 #<<j",
"jo10qg%88t3$25 #1<j",
"jX107k@w8t3&15 $<<j",
"jX1i4l+i8t::1q $<<j",
"j.1u4l*e8t>&1q $<<j",
"jX10qg47ew3@35+$=<j",
"jo20ugu4iwr@q5%1<<j",
"jO4ufgz4e9ii551#<<j",
"j<1uhzlqsssq-115#6j",
"jj2;#--#o$12o-#-6jj"
};
